<?xml version="1.0" encoding="UTF-8"?>
<svg xmlns="http://www.w3.org/2000/svg"
     xmlns:xlink="http://www.w3.org/1999/xlink"
     xmlns:gadfly="http://www.gadflyjl.org/ns"
     version="1.2"
     width="180mm" height="70mm" viewBox="0 0 180 70"
     stroke="none"
     fill="#000000"
     stroke-width="0.3"
     font-size="3.88"
>
<defs>
  <marker id="arrow" markerWidth="15" markerHeight="7" refX="5" refY="3.5" orient="auto" markerUnits="strokeWidth">
    <path d="M0,0 L15,3.5 L0,7 z" stroke="context-stroke" fill="context-stroke"/>
  </marker>
</defs>
<g class="plotroot xscalable yscalable" id="img-6814cfa5-1">
  <g font-size="3.88" font-family="'PT Sans','Helvetica Neue','Helvetica',sans-serif" fill="#564A55" stroke="#000000" stroke-opacity="0.000" id="img-6814cfa5-2">
    <g transform="translate(121.86,61.39)">
      <g class="primitive">
        <text text-anchor="middle" dy="0.6em">Growth Factor (-)</text>
      </g>
    </g>
  </g>
  <g class="guide xlabels" font-size="2.82" font-family="'PT Sans Caption','Helvetica Neue','Helvetica',sans-serif" fill="#6C606B" id="img-6814cfa5-3">
    <g transform="translate(97.63,54.72)">
      <g class="primitive">
        <text text-anchor="middle" dy="0.6em"></text>
      </g>
    </g>
    <g transform="translate(100.48,54.72)">
      <g class="primitive">
        <text text-anchor="middle" dy="0.6em"></text>
      </g>
    </g>
    <g transform="translate(103.33,54.72)">
      <g class="primitive">
        <text text-anchor="middle" dy="0.6em">1.0</text>
      </g>
    </g>
    <g transform="translate(106.18,54.72)">
      <g class="primitive">
        <text text-anchor="middle" dy="0.6em"></text>
      </g>
    </g>
    <g transform="translate(109.04,54.72)">
      <g class="primitive">
        <text text-anchor="middle" dy="0.6em"></text>
      </g>
    </g>
    <g transform="translate(111.89,54.72)">
      <g class="primitive">
        <text text-anchor="middle" dy="0.6em"></text>
      </g>
    </g>
    <g transform="translate(114.74,54.72)">
      <g class="primitive">
        <text text-anchor="middle" dy="0.6em"></text>
      </g>
    </g>
    <g transform="translate(117.59,54.72)">
      <g class="primitive">
        <text text-anchor="middle" dy="0.6em">1.5</text>
      </g>
    </g>
    <g transform="translate(120.44,54.72)">
      <g class="primitive">
        <text text-anchor="middle" dy="0.6em"></text>
      </g>
    </g>
    <g transform="translate(123.29,54.72)">
      <g class="primitive">
        <text text-anchor="middle" dy="0.6em"></text>
      </g>
    </g>
    <g transform="translate(126.14,54.72)">
      <g class="primitive">
        <text text-anchor="middle" dy="0.6em"></text>
      </g>
    </g>
    <g transform="translate(128.99,54.72)">
      <g class="primitive">
        <text text-anchor="middle" dy="0.6em"></text>
      </g>
    </g>
    <g transform="translate(131.84,54.72)">
      <g class="primitive">
        <text text-anchor="middle" dy="0.6em">2.0</text>
      </g>
    </g>
    <g transform="translate(134.69,54.72)">
      <g class="primitive">
        <text text-anchor="middle" dy="0.6em"></text>
      </g>
    </g>
    <g transform="translate(137.54,54.72)">
      <g class="primitive">
        <text text-anchor="middle" dy="0.6em"></text>
      </g>
    </g>
    <g transform="translate(140.39,54.72)">
      <g class="primitive">
        <text text-anchor="middle" dy="0.6em"></text>
      </g>
    </g>
    <g transform="translate(143.25,54.72)">
      <g class="primitive">
        <text text-anchor="middle" dy="0.6em"></text>
      </g>
    </g>
    <g transform="translate(146.1,54.72)">
      <g class="primitive">
        <text text-anchor="middle" dy="0.6em">2.5</text>
      </g>
    </g>
  </g>
  <g class="guide colorkey" id="img-6814cfa5-4">
    <g fill="#4C404B" font-size="2.82" font-family="'PT Sans','Helvetica Neue','Helvetica',sans-serif" id="img-6814cfa5-5">
      <g transform="translate(152.57,25.39)" id="img-6814cfa5-6" class="color_Truth">
        <g class="primitive">
          <text dy="0.35em">Truth</text>
        </g>
      </g>
      <g transform="translate(152.57,30.33)" id="img-6814cfa5-7" class="color_L0D1e-3B[0,1],_0.003">
        <g class="primitive">
          <text dy="0.35em">L<tspan dy="0.4em" font-size="83%">0</tspan><tspan dy="-0.3320em">D</tspan><tspan dy="0.4em" font-size="83%">1e-3</tspan><tspan dy="-0.3320em">B</tspan><tspan dy="0.4em" font-size="83%">[0,1]</tspan><tspan dy="-0.3320em">, 0.003</tspan></text>
        </g>
      </g>
      <g transform="translate(152.57,35.27)" id="img-6814cfa5-8" class="color_L2x0B[0,1],_0.003">
        <g class="primitive">
          <text dy="0.35em">L<tspan dy="0.4em" font-size="83%">2</tspan><tspan dy="-0.3320em">x</tspan><tspan dy="0.4em" font-size="83%">0</tspan><tspan dy="-0.3320em">B</tspan><tspan dy="0.4em" font-size="83%">[0,1]</tspan><tspan dy="-0.3320em">, 0.003</tspan></text>
        </g>
      </g>
    </g>
    <g fill-opacity="1" id="img-6814cfa5-9">
      <g transform="translate(150.33,25.39)" id="img-6814cfa5-10" stroke="#FFFFFF" fill="#000000" class="color_Truth">
        <path d="M-1.24,-1.24 L1.24,-1.24 1.24,1.24 -1.24,1.24  z" class="primitive"/>
      </g>
      <g transform="translate(150.33,30.33)" id="img-6814cfa5-11" stroke="#FFFFFF" fill="#8B0000" class="color_L0D1e-3B[0,1],_0.003">
        <path d="M-1.24,-1.24 L1.24,-1.24 1.24,1.24 -1.24,1.24  z" class="primitive"/>
      </g>
      <g transform="translate(150.33,35.27)" id="img-6814cfa5-12" stroke="#FFFFFF" fill="#4F94CD" class="color_L2x0B[0,1],_0.003">
        <path d="M-1.24,-1.24 L1.24,-1.24 1.24,1.24 -1.24,1.24  z" class="primitive"/>
      </g>
    </g>
    <g fill="#362A35" font-size="3.88" font-family="'PT Sans','Helvetica Neue','Helvetica',sans-serif" stroke="#000000" stroke-opacity="0.000" id="img-6814cfa5-13">
      <g transform="translate(149.1,20.25)" id="img-6814cfa5-14">
        <g class="primitive">
          <text dy="-0em"></text>
        </g>
      </g>
    </g>
  </g>
  <g clip-path="url(#img-6814cfa5-15)">
    <g id="img-6814cfa5-16">
      <g pointer-events="visible" stroke-width="0.3" fill="#000000" fill-opacity="0.000" stroke="#000000" stroke-opacity="0.000" class="guide background" id="img-6814cfa5-17">
        <g transform="translate(121.86,27.86)" id="img-6814cfa5-18">
          <path d="M-26.23,-25.86 L26.23,-25.86 26.23,25.86 -26.23,25.86  z" class="primitive"/>
        </g>
      </g>
      <g class="guide ygridlines xfixed" stroke-dasharray="0.5,0.5" stroke-width="0.2" stroke="#D0D0E0" id="img-6814cfa5-19">
        <g transform="translate(121.86,51.72)" id="img-6814cfa5-20">
          <path fill="none" d="M-26.23,0 L26.23,0 " class="primitive"/>
        </g>
        <g transform="translate(121.86,42.17)" id="img-6814cfa5-21">
          <path fill="none" d="M-26.23,0 L26.23,0 " class="primitive"/>
        </g>
        <g transform="translate(121.86,32.63)" id="img-6814cfa5-22">
          <path fill="none" d="M-26.23,0 L26.23,0 " class="primitive"/>
        </g>
        <g transform="translate(121.86,23.09)" id="img-6814cfa5-23">
          <path fill="none" d="M-26.23,0 L26.23,0 " class="primitive"/>
        </g>
        <g transform="translate(121.86,13.54)" id="img-6814cfa5-24">
          <path fill="none" d="M-26.23,0 L26.23,0 " class="primitive"/>
        </g>
        <g transform="translate(121.86,4)" id="img-6814cfa5-25">
          <path fill="none" d="M-26.23,0 L26.23,0 " class="primitive"/>
        </g>
      </g>
      <g class="guide xgridlines yfixed" stroke-dasharray="0.5,0.5" stroke-width="0.2" stroke="#D0D0E0" id="img-6814cfa5-26">
        <g transform="translate(97.63,27.86)" id="img-6814cfa5-27">
          <path fill="none" d="M0,-25.86 L0,25.86 " class="primitive"/>
        </g>
        <g transform="translate(100.48,27.86)" id="img-6814cfa5-28">
          <path fill="none" d="M0,-25.86 L0,25.86 " class="primitive"/>
        </g>
        <g transform="translate(103.33,27.86)" id="img-6814cfa5-29">
          <path fill="none" d="M0,-25.86 L0,25.86 " class="primitive"/>
        </g>
        <g transform="translate(106.18,27.86)" id="img-6814cfa5-30">
          <path fill="none" d="M0,-25.86 L0,25.86 " class="primitive"/>
        </g>
        <g transform="translate(109.04,27.86)" id="img-6814cfa5-31">
          <path fill="none" d="M0,-25.86 L0,25.86 " class="primitive"/>
        </g>
        <g transform="translate(111.89,27.86)" id="img-6814cfa5-32">
          <path fill="none" d="M0,-25.86 L0,25.86 " class="primitive"/>
        </g>
        <g transform="translate(114.74,27.86)" id="img-6814cfa5-33">
          <path fill="none" d="M0,-25.86 L0,25.86 " class="primitive"/>
        </g>
        <g transform="translate(117.59,27.86)" id="img-6814cfa5-34">
          <path fill="none" d="M0,-25.86 L0,25.86 " class="primitive"/>
        </g>
        <g transform="translate(120.44,27.86)" id="img-6814cfa5-35">
          <path fill="none" d="M0,-25.86 L0,25.86 " class="primitive"/>
        </g>
        <g transform="translate(123.29,27.86)" id="img-6814cfa5-36">
          <path fill="none" d="M0,-25.86 L0,25.86 " class="primitive"/>
        </g>
        <g transform="translate(126.14,27.86)" id="img-6814cfa5-37">
          <path fill="none" d="M0,-25.86 L0,25.86 " class="primitive"/>
        </g>
        <g transform="translate(128.99,27.86)" id="img-6814cfa5-38">
          <path fill="none" d="M0,-25.86 L0,25.86 " class="primitive"/>
        </g>
        <g transform="translate(131.84,27.86)" id="img-6814cfa5-39">
          <path fill="none" d="M0,-25.86 L0,25.86 " class="primitive"/>
        </g>
        <g transform="translate(134.69,27.86)" id="img-6814cfa5-40">
          <path fill="none" d="M0,-25.86 L0,25.86 " class="primitive"/>
        </g>
        <g transform="translate(137.54,27.86)" id="img-6814cfa5-41">
          <path fill="none" d="M0,-25.86 L0,25.86 " class="primitive"/>
        </g>
        <g transform="translate(140.39,27.86)" id="img-6814cfa5-42">
          <path fill="none" d="M0,-25.86 L0,25.86 " class="primitive"/>
        </g>
        <g transform="translate(143.25,27.86)" id="img-6814cfa5-43">
          <path fill="none" d="M0,-25.86 L0,25.86 " class="primitive"/>
        </g>
        <g transform="translate(146.1,27.86)" id="img-6814cfa5-44">
          <path fill="none" d="M0,-25.86 L0,25.86 " class="primitive"/>
        </g>
      </g>
      <g class="plotpanel" id="img-6814cfa5-45">
        <metadata>
          <boundingbox value="95.63166666666667mm 2.0mm 52.465mm 51.715mm"/>
          <unitbox value="0.7298462808212112 2.6047888504663104 1.8403074383575777 -2.7095777009326207"/>
        </metadata>
        <g stroke-width="0.3" fill="#000000" fill-opacity="0.000" class="geometry" id="img-6814cfa5-46">
          <g transform="translate(137.04,43.86)" id="img-6814cfa5-47" class="color_Truth" stroke="#000000" stroke-dasharray="none">
            <path fill="none" d="M-39.11,7.79 L-38.5,7.79 -38.5,7.77 -37.86,7.77 -37.86,7.74 -37.21,7.74 -37.21,7.7 -36.54,7.7 -36.54,7.64 -35.85,7.64 -35.85,7.55 -35.13,7.55 -35.13,7.41 -34.4,7.41 -34.4,7.15 -33.64,7.15 -33.64,6.69 -32.86,6.69 -32.86,5.85 -32.05,5.85 -32.05,4.37 -31.22,4.37 -31.22,1.87 -30.36,1.87 -30.36,-2.06 -29.47,-2.06 -29.47,-7.72 -28.56,-7.72 -28.56,-14.96 -27.62,-14.96 -27.62,-22.94 -26.64,-22.94 -26.64,-29.99 -25.64,-29.99 -25.64,-34.13 -24.6,-34.13 -24.6,-33.93 -23.52,-33.93 -23.52,-29.47 -22.41,-29.47 -22.41,-22.53 -21.26,-22.53 -21.26,-15.65 -20.07,-15.65 -20.07,-10.72 -18.85,-10.72 -18.85,-8.25 -17.58,-8.25 -17.58,-7.57 -16.26,-7.57 -16.26,-7.64 -14.9,-7.64 -14.9,-7.68 -13.49,-7.68 -13.49,-7.29 -12.03,-7.29 -12.03,-6.34 -10.51,-6.34 -10.51,-4.86 -8.94,-4.86 -8.94,-2.98 -7.31,-2.98 -7.31,-0.87 -5.63,-0.87 -5.63,1.25 -3.88,1.25 -3.88,3.19 -2.06,3.19 -2.06,4.8 -0.17,4.8 -0.17,6.02 1.79,6.02 1.79,6.85 3.82,6.85 3.82,7.36 5.94,7.36 5.94,7.63 8.13,7.63 8.13,7.77 10.42,7.77 10.42,7.83 12.8,7.83 12.8,7.85 15.27,7.85 15.27,7.85 17.85,7.85 17.85,7.86 20.53,7.86 20.53,7.86 23.32,7.86 23.32,7.86 26.22,7.86 26.22,7.86 29.25,7.86 29.25,7.86 32.41,7.86 32.41,7.86 35.71,7.86 35.71,7.86 39.14,7.86 39.14,7.86 42.72,7.86 42.72,7.86 46.46,7.86 46.46,7.86 50.37,7.86 50.37,7.86 54.44,7.86 54.44,7.86 58.7,7.86 58.7,7.86 63.14,7.86 63.14,7.86 67.78,7.86 67.78,7.86 72.63,7.86 72.63,7.86 77.7,7.86 77.7,7.86 " class="primitive"/>
          </g>
          <g transform="translate(137.04,44.04)" id="img-6814cfa5-48" class="color_L2x0B[0,1],_0.003" stroke="#4F94CD" stroke-dasharray="none">
            <path fill="none" d="M-39.11,7.68 L-38.5,7.68 -38.5,7.68 -37.86,7.68 -37.86,7.27 -37.21,7.27 -37.21,6.12 -36.54,6.12 -36.54,6.03 -35.85,6.03 -35.85,6.56 -35.13,6.56 -35.13,6.54 -34.4,6.54 -34.4,7.68 -33.64,7.68 -33.64,7.68 -32.86,7.68 -32.86,7.68 -32.05,7.68 -32.05,5.91 -31.22,5.91 -31.22,1.32 -30.36,1.32 -30.36,-5.09 -29.47,-5.09 -29.47,-12.32 -28.56,-12.32 -28.56,-17.35 -27.62,-17.35 -27.62,-26.08 -26.64,-26.08 -26.64,-30.46 -25.64,-30.46 -25.64,-31.71 -24.6,-31.71 -24.6,-27.48 -23.52,-27.48 -23.52,-26 -22.41,-26 -22.41,-20.22 -21.26,-20.22 -21.26,-13 -20.07,-13 -20.07,-9.46 -18.85,-9.46 -18.85,-9.9 -17.58,-9.9 -17.58,-6.82 -16.26,-6.82 -16.26,-8.19 -14.9,-8.19 -14.9,-8.77 -13.49,-8.77 -13.49,-5.51 -12.03,-5.51 -12.03,-5.05 -10.51,-5.05 -10.51,-6.01 -8.94,-6.01 -8.94,-0.67 -7.31,-0.67 -7.31,-0.13 -5.63,-0.13 -5.63,1.26 -3.88,1.26 -3.88,2.39 -2.06,2.39 -2.06,4.87 -0.17,4.87 -0.17,5.44 1.79,5.44 1.79,6.47 3.82,6.47 3.82,7.06 5.94,7.06 5.94,7.46 8.13,7.46 8.13,7.63 10.42,7.63 10.42,7.61 12.8,7.61 12.8,7.68 15.27,7.68 15.27,7.68 17.85,7.68 17.85,7.53 20.53,7.53 20.53,7.65 23.32,7.65 23.32,7.65 26.22,7.65 26.22,7.67 29.25,7.67 29.25,7.68 32.41,7.68 32.41,7.68 35.71,7.68 35.71,7.68 39.14,7.68 39.14,7.68 42.72,7.68 42.72,7.68 46.46,7.68 46.46,7.68 50.37,7.68 50.37,7.68 54.44,7.68 54.44,7.68 58.7,7.68 58.7,7.68 63.14,7.68 63.14,7.68 67.78,7.68 67.78,7.68 72.63,7.68 72.63,7.68 77.7,7.68 77.7,7.68 " class="primitive"/>
          </g>
          <g transform="translate(137.04,43.99)" id="img-6814cfa5-49" class="color_L0D1e-3B[0,1],_0.003" stroke="#8B0000" stroke-dasharray="none">
            <path fill="none" d="M-39.11,6.83 L-38.5,6.83 -38.5,6.85 -37.86,6.85 -37.86,6.88 -37.21,6.88 -37.21,6.58 -36.54,6.58 -36.54,6.01 -35.85,6.01 -35.85,6.38 -35.13,6.38 -35.13,6.97 -34.4,6.97 -34.4,6.99 -33.64,6.99 -33.64,7.02 -32.86,7.02 -32.86,7.04 -32.05,7.04 -32.05,4.75 -31.22,4.75 -31.22,1.15 -30.36,1.15 -30.36,-3.56 -29.47,-3.56 -29.47,-9.85 -28.56,-9.85 -28.56,-17.12 -27.62,-17.12 -27.62,-24.47 -26.64,-24.47 -26.64,-30.44 -25.64,-30.44 -25.64,-33.2 -24.6,-33.2 -24.6,-31.14 -23.52,-31.14 -23.52,-25.43 -22.41,-25.43 -22.41,-18.01 -21.26,-18.01 -21.26,-11.5 -20.07,-11.5 -20.07,-7.9 -18.85,-7.9 -18.85,-7.3 -17.58,-7.3 -17.58,-8.51 -16.26,-8.51 -16.26,-9.44 -14.9,-9.44 -14.9,-9.45 -13.49,-9.45 -13.49,-7.52 -12.03,-7.52 -12.03,-4.84 -10.51,-4.84 -10.51,-2.58 -8.94,-2.58 -8.94,-0.87 -7.31,-0.87 -7.31,0.41 -5.63,0.41 -5.63,1.3 -3.88,1.3 -3.88,2.35 -2.06,2.35 -2.06,3.79 -0.17,3.79 -0.17,5.34 1.79,5.34 1.79,6.65 3.82,6.65 3.82,7.46 5.94,7.46 5.94,7.47 8.13,7.47 8.13,7.48 10.42,7.48 10.42,7.49 12.8,7.49 12.8,7.5 15.27,7.5 15.27,7.51 17.85,7.51 17.85,7.52 20.53,7.52 20.53,7.52 23.32,7.52 23.32,7.53 26.22,7.53 26.22,7.54 29.25,7.54 29.25,7.55 32.41,7.55 32.41,7.55 35.71,7.55 35.71,7.56 39.14,7.56 39.14,7.57 42.72,7.57 42.72,7.57 46.46,7.57 46.46,7.58 50.37,7.58 50.37,7.59 54.44,7.59 54.44,7.59 58.7,7.59 58.7,7.6 63.14,7.6 63.14,7.6 67.78,7.6 67.78,7.61 72.63,7.61 72.63,7.61 77.7,7.61 77.7,7.72 " class="primitive"/>
          </g>
        </g>
      </g>
    </g>
  </g>
  <g class="guide ylabels" font-size="2.82" font-family="'PT Sans Caption','Helvetica Neue','Helvetica',sans-serif" fill="#6C606B" id="img-6814cfa5-50">
    <g transform="translate(94.63,51.72)" id="img-6814cfa5-51">
      <g class="primitive">
        <text text-anchor="end" dy="0.35em">0.0</text>
      </g>
    </g>
    <g transform="translate(94.63,42.17)" id="img-6814cfa5-52">
      <g class="primitive">
        <text text-anchor="end" dy="0.35em">0.5</text>
      </g>
    </g>
    <g transform="translate(94.63,32.63)" id="img-6814cfa5-53">
      <g class="primitive">
        <text text-anchor="end" dy="0.35em">1.0</text>
      </g>
    </g>
    <g transform="translate(94.63,23.09)" id="img-6814cfa5-54">
      <g class="primitive">
        <text text-anchor="end" dy="0.35em">1.5</text>
      </g>
    </g>
    <g transform="translate(94.63,13.54)" id="img-6814cfa5-55">
      <g class="primitive">
        <text text-anchor="end" dy="0.35em">2.0</text>
      </g>
    </g>
    <g transform="translate(94.63,4)" id="img-6814cfa5-56">
      <g class="primitive">
        <text text-anchor="end" dy="0.35em">2.5</text>
      </g>
    </g>
  </g>
  <g font-size="3.88" font-family="'PT Sans','Helvetica Neue','Helvetica',sans-serif" fill="#564A55" stroke="#000000" stroke-opacity="0.000" id="img-6814cfa5-57">
    <g transform="translate(85.81,25.86)" id="img-6814cfa5-58">
      <g class="primitive">
        <text text-anchor="middle" dy="0.35em" transform="rotate(-90,0, 2)">Probability Density (-)</text>
      </g>
    </g>
  </g>
</g>
<g class="plotroot xscalable yscalable" id="img-6814cfa5-59">
  <g font-size="3.88" font-family="'PT Sans','Helvetica Neue','Helvetica',sans-serif" fill="#564A55" stroke="#000000" stroke-opacity="0.000" id="img-6814cfa5-60">
    <g transform="translate(39.05,61.39)" id="img-6814cfa5-61">
      <g class="primitive">
        <text text-anchor="middle" dy="0.6em">Apparent Growth Factor (-)</text>
      </g>
    </g>
  </g>
  <g class="guide xlabels" font-size="2.82" font-family="'PT Sans Caption','Helvetica Neue','Helvetica',sans-serif" fill="#6C606B" id="img-6814cfa5-62">
    <g transform="translate(14.96,54.72)" id="img-6814cfa5-63">
      <g class="primitive">
        <text text-anchor="middle" dy="0.6em"></text>
      </g>
    </g>
    <g transform="translate(17.79,54.72)" id="img-6814cfa5-64">
      <g class="primitive">
        <text text-anchor="middle" dy="0.6em"></text>
      </g>
    </g>
    <g transform="translate(20.63,54.72)" id="img-6814cfa5-65">
      <g class="primitive">
        <text text-anchor="middle" dy="0.6em">1.0</text>
      </g>
    </g>
    <g transform="translate(23.46,54.72)" id="img-6814cfa5-66">
      <g class="primitive">
        <text text-anchor="middle" dy="0.6em"></text>
      </g>
    </g>
    <g transform="translate(26.29,54.72)" id="img-6814cfa5-67">
      <g class="primitive">
        <text text-anchor="middle" dy="0.6em"></text>
      </g>
    </g>
    <g transform="translate(29.13,54.72)" id="img-6814cfa5-68">
      <g class="primitive">
        <text text-anchor="middle" dy="0.6em"></text>
      </g>
    </g>
    <g transform="translate(31.96,54.72)" id="img-6814cfa5-69">
      <g class="primitive">
        <text text-anchor="middle" dy="0.6em"></text>
      </g>
    </g>
    <g transform="translate(34.8,54.72)" id="img-6814cfa5-70">
      <g class="primitive">
        <text text-anchor="middle" dy="0.6em">1.5</text>
      </g>
    </g>
    <g transform="translate(37.63,54.72)" id="img-6814cfa5-71">
      <g class="primitive">
        <text text-anchor="middle" dy="0.6em"></text>
      </g>
    </g>
    <g transform="translate(40.46,54.72)" id="img-6814cfa5-72">
      <g class="primitive">
        <text text-anchor="middle" dy="0.6em"></text>
      </g>
    </g>
    <g transform="translate(43.3,54.72)" id="img-6814cfa5-73">
      <g class="primitive">
        <text text-anchor="middle" dy="0.6em"></text>
      </g>
    </g>
    <g transform="translate(46.13,54.72)" id="img-6814cfa5-74">
      <g class="primitive">
        <text text-anchor="middle" dy="0.6em"></text>
      </g>
    </g>
    <g transform="translate(48.96,54.72)" id="img-6814cfa5-75">
      <g class="primitive">
        <text text-anchor="middle" dy="0.6em">2.0</text>
      </g>
    </g>
    <g transform="translate(51.8,54.72)" id="img-6814cfa5-76">
      <g class="primitive">
        <text text-anchor="middle" dy="0.6em"></text>
      </g>
    </g>
    <g transform="translate(54.63,54.72)" id="img-6814cfa5-77">
      <g class="primitive">
        <text text-anchor="middle" dy="0.6em"></text>
      </g>
    </g>
    <g transform="translate(57.47,54.72)" id="img-6814cfa5-78">
      <g class="primitive">
        <text text-anchor="middle" dy="0.6em"></text>
      </g>
    </g>
    <g transform="translate(60.3,54.72)" id="img-6814cfa5-79">
      <g class="primitive">
        <text text-anchor="middle" dy="0.6em"></text>
      </g>
    </g>
    <g transform="translate(63.13,54.72)" id="img-6814cfa5-80">
      <g class="primitive">
        <text text-anchor="middle" dy="0.6em">2.5</text>
      </g>
    </g>
  </g>
  <g class="guide colorkey" id="img-6814cfa5-81">
    <g fill="#4C404B" font-size="2.82" font-family="'PT Sans','Helvetica Neue','Helvetica',sans-serif" id="img-6814cfa5-82">
      <g transform="translate(68.95,27.86)" id="img-6814cfa5-83" class="color_No_noise">
        <g class="primitive">
          <text dy="0.35em">No noise</text>
        </g>
      </g>
      <g transform="translate(68.95,31.48)" id="img-6814cfa5-84" class="color_Q_=_1lpm">
        <g class="primitive">
          <text dy="0.35em">Q = 1lpm</text>
        </g>
      </g>
    </g>
    <g fill-opacity="1" id="img-6814cfa5-85">
      <g transform="translate(67.04,27.86)" id="img-6814cfa5-86" class="color_No_noise" fill="#000000" stroke="#FFFFFF">
        <path d="M-0.91,-0.91 L0.91,-0.91 0.91,0.91 -0.91,0.91  z" class="primitive"/>
      </g>
      <g transform="translate(67.04,31.48)" id="img-6814cfa5-87" class="color_Q_=_1lpm" fill="#8B0000" stroke="#FFFFFF">
        <path d="M-0.91,-0.91 L0.91,-0.91 0.91,0.91 -0.91,0.91  z" class="primitive"/>
      </g>
    </g>
    <g fill="#362A35" font-size="3.88" font-family="'PT Sans','Helvetica Neue','Helvetica',sans-serif" stroke="#000000" stroke-opacity="0.000" id="img-6814cfa5-88">
      <g transform="translate(66.13,24.04)" id="img-6814cfa5-89">
        <g class="primitive">
          <text dy="-0em"></text>
        </g>
      </g>
    </g>
  </g>
  <g clip-path="url(#img-6814cfa5-90)">
    <g id="img-6814cfa5-91">
      <g pointer-events="visible" stroke-width="0.3" fill="#000000" fill-opacity="0.000" stroke="#000000" stroke-opacity="0.000" class="guide background" id="img-6814cfa5-92">
        <g transform="translate(39.05,27.86)" id="img-6814cfa5-93">
          <path d="M-26.09,-25.86 L26.09,-25.86 26.09,25.86 -26.09,25.86  z" class="primitive"/>
        </g>
      </g>
      <g class="guide ygridlines xfixed" stroke-dasharray="0.5,0.5" stroke-width="0.2" stroke="#D0D0E0" id="img-6814cfa5-94">
        <g transform="translate(39.05,51.72)" id="img-6814cfa5-95">
          <path fill="none" d="M-26.09,0 L26.09,0 " class="primitive"/>
        </g>
        <g transform="translate(39.05,27.86)" id="img-6814cfa5-96">
          <path fill="none" d="M-26.09,0 L26.09,0 " class="primitive"/>
        </g>
        <g transform="translate(39.05,4)" id="img-6814cfa5-97">
          <path fill="none" d="M-26.09,0 L26.09,0 " class="primitive"/>
        </g>
      </g>
      <g class="guide xgridlines yfixed" stroke-dasharray="0.5,0.5" stroke-width="0.2" stroke="#D0D0E0" id="img-6814cfa5-98">
        <g transform="translate(14.96,27.86)" id="img-6814cfa5-99">
          <path fill="none" d="M0,-25.86 L0,25.86 " class="primitive"/>
        </g>
        <g transform="translate(17.79,27.86)" id="img-6814cfa5-100">
          <path fill="none" d="M0,-25.86 L0,25.86 " class="primitive"/>
        </g>
        <g transform="translate(20.63,27.86)" id="img-6814cfa5-101">
          <path fill="none" d="M0,-25.86 L0,25.86 " class="primitive"/>
        </g>
        <g transform="translate(23.46,27.86)" id="img-6814cfa5-102">
          <path fill="none" d="M0,-25.86 L0,25.86 " class="primitive"/>
        </g>
        <g transform="translate(26.29,27.86)" id="img-6814cfa5-103">
          <path fill="none" d="M0,-25.86 L0,25.86 " class="primitive"/>
        </g>
        <g transform="translate(29.13,27.86)" id="img-6814cfa5-104">
          <path fill="none" d="M0,-25.86 L0,25.86 " class="primitive"/>
        </g>
        <g transform="translate(31.96,27.86)" id="img-6814cfa5-105">
          <path fill="none" d="M0,-25.86 L0,25.86 " class="primitive"/>
        </g>
        <g transform="translate(34.8,27.86)" id="img-6814cfa5-106">
          <path fill="none" d="M0,-25.86 L0,25.86 " class="primitive"/>
        </g>
        <g transform="translate(37.63,27.86)" id="img-6814cfa5-107">
          <path fill="none" d="M0,-25.86 L0,25.86 " class="primitive"/>
        </g>
        <g transform="translate(40.46,27.86)" id="img-6814cfa5-108">
          <path fill="none" d="M0,-25.86 L0,25.86 " class="primitive"/>
        </g>
        <g transform="translate(43.3,27.86)" id="img-6814cfa5-109">
          <path fill="none" d="M0,-25.86 L0,25.86 " class="primitive"/>
        </g>
        <g transform="translate(46.13,27.86)" id="img-6814cfa5-110">
          <path fill="none" d="M0,-25.86 L0,25.86 " class="primitive"/>
        </g>
        <g transform="translate(48.96,27.86)" id="img-6814cfa5-111">
          <path fill="none" d="M0,-25.86 L0,25.86 " class="primitive"/>
        </g>
        <g transform="translate(51.8,27.86)" id="img-6814cfa5-112">
          <path fill="none" d="M0,-25.86 L0,25.86 " class="primitive"/>
        </g>
        <g transform="translate(54.63,27.86)" id="img-6814cfa5-113">
          <path fill="none" d="M0,-25.86 L0,25.86 " class="primitive"/>
        </g>
        <g transform="translate(57.47,27.86)" id="img-6814cfa5-114">
          <path fill="none" d="M0,-25.86 L0,25.86 " class="primitive"/>
        </g>
        <g transform="translate(60.3,27.86)" id="img-6814cfa5-115">
          <path fill="none" d="M0,-25.86 L0,25.86 " class="primitive"/>
        </g>
        <g transform="translate(63.13,27.86)" id="img-6814cfa5-116">
          <path fill="none" d="M0,-25.86 L0,25.86 " class="primitive"/>
        </g>
      </g>
      <g class="plotpanel" id="img-6814cfa5-117">
        <metadata>
          <boundingbox value="12.958333333333336mm 2.0mm 52.17499999999999mm 51.715mm"/>
          <unitbox value="0.7294239750908148 10.419155401865241 1.8411520498183707 -10.838310803730483"/>
        </metadata>
        <g stroke-width="0.3" fill="#000000" fill-opacity="0.000" class="geometry" id="img-6814cfa5-118">
          <g transform="translate(54.14,40.15)" id="img-6814cfa5-119" class="color_No_noise" stroke="#000000" stroke-dasharray="none">
            <path fill="none" d="M-38.88,11.52 L-38.27,11.52 -38.27,11.49 -37.64,11.49 -37.64,11.44 -36.99,11.44 -36.99,11.36 -36.32,11.36 -36.32,11.23 -35.63,11.23 -35.63,11.01 -34.92,11.01 -34.92,10.63 -34.19,10.63 -34.19,9.96 -33.44,9.96 -33.44,8.85 -32.66,8.85 -32.66,7.07 -31.86,7.07 -31.86,4.41 -31.03,4.41 -31.03,0.66 -30.18,0.66 -30.18,-4.22 -29.3,-4.22 -29.3,-10.09 -28.39,-10.09 -28.39,-16.53 -27.45,-16.53 -27.45,-22.87 -26.48,-22.87 -26.48,-28.27 -25.48,-28.27 -25.48,-31.99 -24.45,-31.99 -24.45,-33.56 -23.38,-33.56 -23.38,-32.92 -22.28,-32.92 -22.28,-30.54 -21.13,-30.54 -21.13,-27.18 -19.95,-27.18 -19.95,-23.66 -18.73,-23.66 -18.73,-20.59 -17.47,-20.59 -17.47,-18.27 -16.16,-18.27 -16.16,-16.6 -14.81,-16.6 -14.81,-15.31 -13.41,-15.31 -13.41,-14 -11.95,-14 -11.95,-12.37 -10.45,-12.37 -10.45,-10.25 -8.89,-10.25 -8.89,-7.68 -7.27,-7.68 -7.27,-4.79 -5.59,-4.79 -5.59,-1.77 -3.85,-1.77 -3.85,1.15 -2.05,1.15 -2.05,3.81 -0.17,3.81 -0.17,6.08 1.78,6.08 1.78,7.88 3.8,7.88 3.8,9.23 5.9,9.23 5.9,10.17 8.09,10.17 8.09,10.78 10.36,10.78 10.36,11.15 12.72,11.15 12.72,11.36 15.18,11.36 15.18,11.47 17.74,11.47 17.74,11.53 20.4,11.53 20.4,11.55 23.18,11.55 23.18,11.56 26.07,11.56 26.07,11.56 29.08,11.56 29.08,11.56 32.22,11.56 32.22,11.56 35.49,11.56 35.49,11.56 38.91,11.56 38.91,11.56 42.47,11.56 42.47,11.56 46.19,11.56 46.19,11.56 50.07,11.56 50.07,11.56 54.12,11.56 54.12,11.56 58.35,11.56 58.35,11.56 62.76,11.56 62.76,11.56 67.38,11.56 67.38,11.56 72.2,11.56 72.2,11.56 77.24,11.56 77.24,11.56 " class="primitive"/>
          </g>
          <g transform="translate(54.14,40.54)" id="img-6814cfa5-120" class="color_Q_=_1lpm" stroke="#8B0000" stroke-dasharray="none">
            <path fill="none" d="M-38.88,11.17 L-38.27,11.17 -38.27,11.17 -37.64,11.17 -37.64,11.17 -36.99,11.17 -36.99,10.74 -36.32,10.74 -36.32,10.74 -35.63,10.74 -35.63,10.74 -34.92,10.74 -34.92,9.74 -34.19,9.74 -34.19,10.03 -33.44,10.03 -33.44,8.45 -32.66,8.45 -32.66,7.74 -31.86,7.74 -31.86,4.16 -31.03,4.16 -31.03,-0.28 -30.18,-0.28 -30.18,-5.86 -29.3,-5.86 -29.3,-11.87 -28.39,-11.87 -28.39,-15.45 -27.45,-15.45 -27.45,-24.04 -26.48,-24.04 -26.48,-29.05 -25.48,-29.05 -25.48,-32.06 -24.45,-32.06 -24.45,-29.77 -23.38,-29.77 -23.38,-32.06 -22.28,-32.06 -22.28,-28.76 -21.13,-28.76 -21.13,-22.47 -19.95,-22.47 -19.95,-19.75 -18.73,-19.75 -18.73,-21.32 -17.47,-21.32 -17.47,-16.17 -16.16,-16.17 -16.16,-17.31 -14.81,-17.31 -14.81,-17.31 -13.41,-17.31 -13.41,-11.16 -11.95,-11.16 -11.95,-10.44 -10.45,-10.44 -10.45,-13.02 -8.89,-13.02 -8.89,-3.86 -7.27,-3.86 -7.27,-3.86 -5.59,-3.86 -5.59,-2 -3.85,-2 -3.85,-0.42 -2.05,-0.42 -2.05,4.44 -0.17,4.44 -0.17,5.3 1.78,5.3 1.78,7.45 3.8,7.45 3.8,8.74 5.9,8.74 5.9,9.74 8.09,9.74 8.09,10.31 10.36,10.31 10.36,10.46 12.72,10.46 12.72,10.89 15.18,10.89 15.18,11.17 17.74,11.17 17.74,10.74 20.4,10.74 20.4,11.17 23.18,11.17 23.18,11.17 26.07,11.17 26.07,11.17 29.08,11.17 29.08,11.17 32.22,11.17 32.22,11.17 35.49,11.17 35.49,11.17 38.91,11.17 38.91,11.17 42.47,11.17 42.47,11.17 46.19,11.17 46.19,11.17 50.07,11.17 50.07,11.17 54.12,11.17 54.12,11.17 58.35,11.17 58.35,11.17 62.76,11.17 62.76,11.17 67.38,11.17 67.38,11.17 72.2,11.17 72.2,11.17 77.24,11.17 77.24,11.17 " class="primitive"/>
          </g>
        </g>
      </g>
    </g>
  </g>
  <g class="guide ylabels" font-size="2.82" font-family="'PT Sans Caption','Helvetica Neue','Helvetica',sans-serif" fill="#6C606B" id="img-6814cfa5-121">
    <g transform="translate(11.96,51.72)" id="img-6814cfa5-122">
      <g class="primitive">
        <text text-anchor="end" dy="0.35em">0</text>
      </g>
    </g>
    <g transform="translate(11.96,27.86)" id="img-6814cfa5-123">
      <g class="primitive">
        <text text-anchor="end" dy="0.35em">5</text>
      </g>
    </g>
    <g transform="translate(11.96,4)" id="img-6814cfa5-124">
      <g class="primitive">
        <text text-anchor="end" dy="0.35em">10</text>
      </g>
    </g>
  </g>
  <g font-size="3.88" font-family="'PT Sans','Helvetica Neue','Helvetica',sans-serif" fill="#564A55" stroke="#000000" stroke-opacity="0.000" id="img-6814cfa5-125">
    <g transform="translate(3.81,25.86)" id="img-6814cfa5-126">
      <g class="primitive">
        <text text-anchor="middle" dy="0.35em" transform="rotate(-90,0, 2)">Concentration (cm⁻³)</text>
      </g>
    </g>
  </g>
</g>
<defs>
  <clipPath id="img-6814cfa5-15">
    <path d="M95.63,2 L148.1,2 148.1,53.72 95.63,53.72 " />
  </clipPath>
  <clipPath id="img-6814cfa5-90">
    <path d="M12.96,2 L65.13,2 65.13,53.72 12.96,53.72 " />
  </clipPath>
</defs>
</svg>
